<svg width="192" height="32" viewBox="0 0 192 32" fill="none" xmlns="http://www.w3.org/2000/svg">
<path d="M136.94 2.21247C136.158 1.46747 135.216 0.91043 134.187 0.583568C132.918 0.180944 131.592 -0.0115676 130.261 0.0136699H122.996L120.064 23.9921H124.661L125.636 16.124H128.863L133.134 23.9921H138.504L133.992 15.2735C134.773 14.8658 135.483 14.3331 136.094 13.6966C136.836 12.9194 137.432 12.0144 137.852 11.0253C138.253 10.0886 138.527 9.10229 138.667 8.09278C138.827 6.97694 138.755 5.84005 138.455 4.7534C138.177 3.79039 137.655 2.91528 136.94 2.21247ZM127.058 4.50963H130.568C131.26 4.47152 131.949 4.62327 132.56 4.94844C132.994 5.19889 133.341 5.57557 133.555 6.02828C133.739 6.42802 133.853 6.85618 133.892 7.29433C133.928 7.63694 133.922 7.9825 133.876 8.32378C133.806 8.874 133.634 9.40642 133.369 9.8936C133.052 10.4948 132.587 11.0058 132.019 11.3786C131.302 11.8253 130.465 12.043 129.621 12.0029H126.145L127.058 4.50963Z" fill="#003D87"/>
<path d="M140.908 0.0136719L140.342 4.50963H145.561L143.163 23.9921H148.092L150.489 4.50963H155.936L156.502 0.0136719H140.908Z" fill="#003D87"/>
<path d="M24.4061 0.0136719L18.2436 12.2267L15.1863 1.59901L8.43323 12.2267L4.68379 0.0136719H0L6.74913 23.9921L13.2561 12.2587L16.5587 23.9921L29.8556 0.0136719H24.4061Z" fill="#003D87"/>
<path d="M31.988 0.0136719H48.4125L47.8793 4.50963H36.3697L35.7303 9.7553H45.8907L45.3368 14.2513H35.166L34.5106 19.4962H46.4758L45.9259 23.9921H29.0563L31.988 0.0136719Z" fill="#003D87"/>
<path d="M77.2474 0.0135426C79.1114 -0.0844095 80.9648 0.35056 82.5906 1.26759C83.8934 2.10364 84.5448 3.48907 84.5448 5.42386C84.5412 6.29509 84.415 7.1615 84.17 7.99757C83.9244 8.85868 83.4906 9.65446 82.8999 10.3275C82.2408 11.0494 81.3861 11.5642 80.4397 11.8093L80.2799 11.6495C80.9621 11.8065 81.6114 12.0823 82.1982 12.464C82.8188 12.8688 83.3328 13.4171 83.6968 14.0625C84.1138 14.8429 84.3163 15.72 84.2835 16.6042C84.3166 17.7853 84.0533 18.9559 83.5178 20.0091C83.0292 20.9292 82.3249 21.7171 81.4652 22.3055C80.5825 22.9029 79.6006 23.3386 78.5654 23.5923C77.4844 23.865 76.3736 24.0019 75.2588 24H67.2764L70.2081 0.0215432L77.2474 0.0135426ZM75.4299 19.496C76.1245 19.507 76.8149 19.3866 77.4648 19.1412C78.0378 18.9262 78.5406 18.5576 78.9179 18.0757C79.2967 17.5626 79.4903 16.9362 79.467 16.2989C79.4851 16.0279 79.4471 15.7561 79.3554 15.5004C79.2636 15.2447 79.1201 15.0107 78.9339 14.813C78.5491 14.4532 78.0754 14.2025 77.5615 14.0865C76.9801 13.944 76.3834 13.8734 75.7847 13.8763H73.4268L72.7491 19.496H75.4299ZM76.425 9.75517C76.9127 9.76587 77.3972 9.67355 77.8469 9.48423C78.237 9.31557 78.584 9.06091 78.8619 8.73929C79.1288 8.4305 79.3356 8.07458 79.4718 7.68984C79.6066 7.30921 79.6753 6.90828 79.6748 6.50448C79.6982 6.16734 79.6397 5.82958 79.5041 5.52002C79.3685 5.21045 79.16 4.93829 78.8963 4.72688C78.2811 4.30342 77.5432 4.09522 76.7974 4.13464H74.4955L73.7849 9.75439L76.425 9.75517Z" fill="#003D87"/>
<path d="M58.3819 0.0135426C60.2459 -0.0844095 62.0993 0.35056 63.7251 1.26759C65.0279 2.10364 65.6793 3.48907 65.6793 5.42386C65.6757 6.29509 65.5495 7.1615 65.3045 7.99757C65.0586 8.85875 64.6245 9.65454 64.0336 10.3275C63.3745 11.0494 62.5198 11.5642 61.5734 11.8093L61.4136 11.6495C62.0957 11.8065 62.745 12.0822 63.3318 12.464C63.9524 12.8688 64.4664 13.4171 64.8305 14.0625C65.2475 14.8429 65.4499 15.72 65.4172 16.6042C65.4503 17.7854 65.187 18.9559 64.6514 20.0091C64.1628 20.9292 63.4585 21.7171 62.5989 22.3055C61.7162 22.9029 60.7343 23.3386 59.6991 23.5923C58.6181 23.865 57.5073 24.0019 56.3925 24H48.41L51.3418 0.0215432L58.3819 0.0135426ZM56.5643 19.496C57.2589 19.5069 57.9493 19.3865 58.5993 19.1412C59.1723 18.9262 59.675 18.5576 60.0524 18.0757C60.4312 17.5626 60.6248 16.9362 60.6015 16.2989C60.6195 16.0279 60.5815 15.7561 60.4897 15.5004C60.398 15.2447 60.2546 15.0108 60.0684 14.813C59.6833 14.4531 59.2093 14.2024 58.6952 14.0865C58.1138 13.944 57.517 13.8734 56.9184 13.8763H54.5605L53.8827 19.496H56.5643ZM57.5594 9.75517C58.0472 9.76587 58.5317 9.67355 58.9813 9.48423C59.3715 9.31557 59.7185 9.06091 59.9964 8.73929C60.2633 8.4305 60.4701 8.07458 60.6063 7.68984C60.7411 7.30921 60.8097 6.90828 60.8093 6.50448C60.8326 6.16728 60.7738 5.82948 60.6381 5.51992C60.5024 5.21036 60.2938 4.93825 60.03 4.72688C59.4148 4.30342 58.6769 4.09522 57.9311 4.13464H55.6292L54.9186 9.75439L57.5594 9.75517Z" fill="#003D87"/>
<path d="M100.419 0.0136719L95.0873 10.6153L91.198 0.0136719H85.3448L92.0588 16.5156L88.2223 23.9921H93.2338L106.793 0.0136719H100.419Z" fill="#003D87"/>
<path d="M108.512 11.7016L109.411 10.0351L109.712 11.1429C111.044 10.5639 112.418 10.0861 113.822 9.71374L110.667 0.0136719L100.712 17.9663C102.81 15.3205 105.476 13.1796 108.512 11.7016Z" fill="#003D87"/>
<path d="M110.591 14.3846L113.198 23.9919H118.463L114.608 12.1362C113.216 12.787 111.874 13.5385 110.591 14.3846Z" fill="#003D87"/>
<path d="M97.3701 23.992H101.948C101.948 23.992 105.653 14.1824 120.258 10.0405C120.258 10.0405 104.999 10.0405 97.3701 23.992Z" fill="url(#paint0_linear_702_28718)"/>
<path d="M151.968 23.165C151.968 22.8779 152.058 22.6377 152.24 22.4443C152.427 22.251 152.665 22.1514 152.952 22.1455C153.239 22.1396 153.473 22.2275 153.655 22.4092C153.843 22.5908 153.933 22.8252 153.927 23.1123C153.927 23.3994 153.834 23.6367 153.646 23.8242C153.465 24.0117 153.23 24.1084 152.943 24.1143C152.662 24.1201 152.427 24.0352 152.24 23.8594C152.052 23.6836 151.962 23.4521 151.968 23.165ZM160.352 22.8486C160.739 22.8545 161.099 22.7812 161.433 22.6289C161.767 22.4766 162.052 22.2598 162.286 21.9785C162.52 21.6973 162.687 21.3721 162.787 21.0029L164.299 20.9941C164.205 21.6328 163.956 22.1924 163.552 22.6729C163.153 23.1533 162.664 23.5283 162.084 23.7979C161.51 24.0615 160.909 24.1875 160.282 24.1758C159.614 24.1641 159.046 24.0264 158.577 23.7627C158.114 23.4932 157.742 23.1357 157.461 22.6904C157.179 22.2451 156.986 21.7441 156.881 21.1875C156.775 20.625 156.752 20.0479 156.81 19.4561L156.845 19.0781C156.916 18.4395 157.071 17.833 157.311 17.2588C157.552 16.6787 157.871 16.166 158.269 15.7207C158.674 15.2695 159.151 14.918 159.702 14.666C160.253 14.4141 160.871 14.2969 161.556 14.3145C162.224 14.3262 162.804 14.4844 163.297 14.7891C163.789 15.0879 164.17 15.4951 164.439 16.0107C164.709 16.5264 164.844 17.1123 164.844 17.7686L163.349 17.7598C163.344 17.3848 163.27 17.0391 163.13 16.7227C162.989 16.4062 162.781 16.1514 162.506 15.958C162.23 15.7646 161.89 15.6592 161.486 15.6416C161 15.6299 160.575 15.7207 160.212 15.9141C159.854 16.1074 159.55 16.374 159.298 16.7139C159.052 17.0479 158.855 17.4199 158.709 17.8301C158.568 18.2402 158.471 18.6562 158.419 19.0781L158.375 19.4473C158.34 19.8223 158.334 20.2061 158.357 20.5986C158.386 20.9912 158.469 21.3574 158.603 21.6973C158.738 22.0312 158.946 22.3037 159.227 22.5146C159.509 22.7256 159.884 22.8369 160.352 22.8486ZM165.942 19.4033L165.969 19.2012C166.039 18.5625 166.197 17.9473 166.443 17.3555C166.695 16.7637 167.026 16.2363 167.436 15.7734C167.846 15.3105 168.333 14.9473 168.895 14.6836C169.458 14.4199 170.085 14.2969 170.776 14.3145C171.444 14.3262 172.015 14.4697 172.49 14.7451C172.97 15.0205 173.357 15.3867 173.65 15.8438C173.949 16.2949 174.157 16.8047 174.274 17.373C174.391 17.9414 174.421 18.5273 174.362 19.1309L174.344 19.333C174.268 19.9717 174.104 20.584 173.852 21.1699C173.6 21.7559 173.266 22.2773 172.85 22.7344C172.44 23.1914 171.954 23.5518 171.391 23.8154C170.829 24.0732 170.205 24.1934 169.519 24.1758C168.857 24.1641 168.286 24.0234 167.805 23.7539C167.331 23.4785 166.947 23.1152 166.654 22.6641C166.361 22.2129 166.156 21.7061 166.039 21.1436C165.922 20.5811 165.889 20.001 165.942 19.4033ZM167.551 19.2012L167.533 19.4121C167.492 19.7812 167.489 20.165 167.524 20.5635C167.565 20.9619 167.659 21.3311 167.805 21.6709C167.958 22.0107 168.177 22.2891 168.465 22.5059C168.752 22.7227 169.124 22.8369 169.581 22.8486C170.067 22.8604 170.495 22.7666 170.864 22.5674C171.233 22.3623 171.547 22.0869 171.804 21.7412C172.068 21.3955 172.276 21.0117 172.428 20.5898C172.587 20.168 172.692 19.749 172.745 19.333L172.762 19.1309C172.803 18.7617 172.803 18.3779 172.762 17.9795C172.727 17.5752 172.634 17.2002 172.481 16.8545C172.335 16.5029 172.118 16.2188 171.831 16.002C171.544 15.7793 171.172 15.6621 170.715 15.6504C170.228 15.6328 169.798 15.7295 169.423 15.9404C169.053 16.1455 168.74 16.4238 168.482 16.7754C168.224 17.127 168.016 17.5166 167.858 17.9443C167.706 18.3662 167.603 18.7852 167.551 19.2012ZM178.379 16.4766L177.078 24H175.478L177.131 14.4902H178.642L178.379 16.4766ZM177.667 18.8848L176.946 18.8672C177.028 18.2754 177.175 17.7041 177.385 17.1533C177.596 16.6025 177.878 16.1104 178.229 15.6768C178.587 15.2432 179.017 14.9033 179.521 14.6572C180.025 14.4111 180.608 14.2969 181.27 14.3145C181.762 14.3262 182.178 14.4229 182.518 14.6045C182.858 14.7803 183.131 15.0234 183.336 15.334C183.547 15.6387 183.687 15.9902 183.758 16.3887C183.834 16.7871 183.851 17.2119 183.81 17.6631L182.747 24H181.156L182.211 17.7334C182.258 17.335 182.234 16.9834 182.14 16.6787C182.052 16.374 181.885 16.1338 181.639 15.958C181.393 15.7764 181.059 15.6797 180.637 15.668C180.163 15.6562 179.75 15.7383 179.398 15.9141C179.052 16.0898 178.762 16.333 178.528 16.6436C178.3 16.9482 178.115 17.2969 177.974 17.6895C177.834 18.0762 177.731 18.4746 177.667 18.8848ZM183.81 17.9883L182.668 18.3223C182.738 17.7773 182.885 17.2617 183.107 16.7754C183.336 16.2891 183.632 15.8584 183.995 15.4834C184.358 15.1084 184.78 14.8154 185.26 14.6045C185.741 14.3936 186.271 14.2939 186.851 14.3057C187.367 14.3174 187.803 14.4141 188.161 14.5957C188.518 14.7715 188.802 15.0146 189.013 15.3252C189.23 15.6357 189.374 15.999 189.444 16.415C189.52 16.8252 189.532 17.2705 189.479 17.751L188.433 24H186.834L187.888 17.7246C187.935 17.3203 187.915 16.9658 187.827 16.6611C187.745 16.3564 187.581 16.1191 187.335 15.9492C187.089 15.7734 186.749 15.6826 186.315 15.6768C185.969 15.665 185.653 15.7178 185.366 15.835C185.079 15.9521 184.83 16.1191 184.619 16.3359C184.408 16.5469 184.232 16.793 184.092 17.0742C183.957 17.3555 183.863 17.6602 183.81 17.9883Z" fill="#003D87"/>
<defs>
<linearGradient id="paint0_linear_702_28718" x1="97.3243" y1="23.9362" x2="108.505" y2="2.89366" gradientUnits="userSpaceOnUse">
<stop stop-color="#003D87"/>
<stop offset="0.833" stop-color="#FF00D5"/>
</linearGradient>
</defs>
</svg>
